<?xml version="1.0" encoding="UTF-8"?>
<svg width="512" height="512" viewBox="0 0 512 512" xmlns="http://www.w3.org/2000/svg">
  <!-- Background circle with gradient -->
  <defs>
    <linearGradient id="bgGradient" x1="0%" y1="0%" x2="100%" y2="100%">
      <stop offset="0%" style="stop-color:#3B82F6;stop-opacity:1" />
      <stop offset="100%" style="stop-color:#1D4ED8;stop-opacity:1" />
    </linearGradient>
    <linearGradient id="brainGradient" x1="0%" y1="0%" x2="100%" y2="100%">
      <stop offset="0%" style="stop-color:#FFFFFF;stop-opacity:1" />
      <stop offset="100%" style="stop-color:#E5E7EB;stop-opacity:1" />
    </linearGradient>
  </defs>
  
  <!-- Background -->
  <circle cx="256" cy="256" r="240" fill="url(#bgGradient)" stroke="#1E40AF" stroke-width="4"/>
  
  <!-- Brain icon -->
  <g transform="translate(256,256)">
    <!-- Main brain shape -->
    <path d="M-60,-80 C-80,-100 -80,-120 -60,-130 C-40,-140 -20,-140 0,-130 C20,-140 40,-140 60,-130 C80,-120 80,-100 60,-80 C70,-60 70,-40 60,-20 C70,0 70,20 60,40 C80,60 80,80 60,90 C40,100 20,100 0,90 C-20,100 -40,100 -60,90 C-80,80 -80,60 -60,40 C-70,20 -70,0 -60,-20 C-70,-40 -70,-60 -60,-80 Z" 
          fill="url(#brainGradient)" 
          stroke="#D1D5DB" 
          stroke-width="2"/>
    
    <!-- Brain details/wrinkles -->
    <path d="M-40,-60 Q-20,-70 0,-60 Q20,-70 40,-60" 
          fill="none" 
          stroke="#9CA3AF" 
          stroke-width="2" 
          stroke-linecap="round"/>
    <path d="M-50,-30 Q-25,-40 0,-30 Q25,-40 50,-30" 
          fill="none" 
          stroke="#9CA3AF" 
          stroke-width="2" 
          stroke-linecap="round"/>
    <path d="M-45,0 Q-22,-10 0,0 Q22,-10 45,0" 
          fill="none" 
          stroke="#9CA3AF" 
          stroke-width="2" 
          stroke-linecap="round"/>
    <path d="M-40,30 Q-20,20 0,30 Q20,20 40,30" 
          fill="none" 
          stroke="#9CA3AF" 
          stroke-width="2" 
          stroke-linecap="round"/>
    
    <!-- AI circuit patterns -->
    <circle cx="-30" cy="-40" r="3" fill="#3B82F6"/>
    <circle cx="30" cy="-40" r="3" fill="#3B82F6"/>
    <circle cx="0" cy="-20" r="3" fill="#3B82F6"/>
    <circle cx="-20" cy="10" r="3" fill="#3B82F6"/>
    <circle cx="20" cy="10" r="3" fill="#3B82F6"/>
    
    <!-- Connection lines -->
    <line x1="-30" y1="-40" x2="0" y2="-20" stroke="#3B82F6" stroke-width="1.5" opacity="0.7"/>
    <line x1="30" y1="-40" x2="0" y2="-20" stroke="#3B82F6" stroke-width="1.5" opacity="0.7"/>
    <line x1="0" y1="-20" x2="-20" y2="10" stroke="#3B82F6" stroke-width="1.5" opacity="0.7"/>
    <line x1="0" y1="-20" x2="20" y2="10" stroke="#3B82F6" stroke-width="1.5" opacity="0.7"/>
  </g>
  
  <!-- Productivity icons around the brain -->
  <g transform="translate(256,150)">
    <!-- Task/Checkmark -->
    <circle cx="0" cy="0" r="12" fill="#10B981" opacity="0.9"/>
    <path d="M-4,0 L-1,3 L4,-3" fill="none" stroke="white" stroke-width="2" stroke-linecap="round"/>
  </g>
  
  <g transform="translate(150,256)">
    <!-- Calendar -->
    <rect x="-8" y="-6" width="16" height="12" rx="2" fill="#F59E0B" opacity="0.9"/>
    <rect x="-6" y="-4" width="12" height="8" fill="white"/>
    <line x1="-4" y1="-2" x2="4" y2="-2" stroke="#F59E0B" stroke-width="1"/>
    <line x1="-4" y1="0" x2="4" y2="0" stroke="#F59E0B" stroke-width="1"/>
  </g>
  
  <g transform="translate(362,256)">
    <!-- Email -->
    <rect x="-8" y="-5" width="16" height="10" rx="2" fill="#EF4444" opacity="0.9"/>
    <path d="M-8,-5 L0,2 L8,-5" fill="none" stroke="white" stroke-width="1.5" stroke-linejoin="round"/>
  </g>
  
  <g transform="translate(256,362)">
    <!-- Chat bubble -->
    <circle cx="0" cy="-2" r="10" fill="#8B5CF6" opacity="0.9"/>
    <path d="M-2,6 L0,2 L2,6" fill="#8B5CF6" opacity="0.9"/>
    <circle cx="-3" cy="-2" r="1.5" fill="white"/>
    <circle cx="0" cy="-2" r="1.5" fill="white"/>
    <circle cx="3" cy="-2" r="1.5" fill="white"/>
  </g>
</svg>